<?xml version="1.0" encoding="UTF-8" standalone="no"?><svg xmlns="http://www.w3.org/2000/svg" xmlns:xlink= "http://www.w3.org/1999/xlink" width="600" height="390" style="overflow: hidden;" aria-label="A chart."><defs id="_ABSTRACT_RENDERER_ID_1295"><clipPath id="_ABSTRACT_RENDERER_ID_1296"><rect x="115" y="75" width="371" height="241"></rect></clipPath><filter id="_ABSTRACT_RENDERER_ID_1297"><feGaussianBlur in="SourceAlpha" stdDeviation="2"></feGaussianBlur><feOffset dx="1" dy="1"></feOffset><feComponentTransfer><feFuncA type="linear" slope="0.1"></feFuncA></feComponentTransfer><feMerge><feMergeNode></feMergeNode><feMergeNode in="SourceGraphic"></feMergeNode></feMerge></filter></defs><rect x="0" y="0" width="600" height="390" stroke="none" stroke-width="0" fill="#ffffff"></rect><g><text text-anchor="start" x="115" y="52.05" font-family="Arial" font-size="13" font-weight="bold" stroke="none" stroke-width="0" fill="#000000">Trường hợp không có nghiệm thỏa mãn</text><rect x="115" y="41" width="371" height="13" stroke="none" stroke-width="0" fill-opacity="0" fill="#ffffff"></rect></g><g><rect x="115" y="75" width="371" height="241" stroke="none" stroke-width="0" fill-opacity="0" fill="#ffffff"></rect><g clip-path="url(https://www.rapidtables.com/tools/scatter-plot.html#_ABSTRACT_RENDERER_ID_1296)"><g><rect x="115" y="75" width="1" height="241" stroke="none" stroke-width="0" fill="#cccccc"></rect><rect x="208" y="75" width="1" height="241" stroke="none" stroke-width="0" fill="#cccccc"></rect><rect x="300" y="75" width="1" height="241" stroke="none" stroke-width="0" fill="#cccccc"></rect><rect x="393" y="75" width="1" height="241" stroke="none" stroke-width="0" fill="#cccccc"></rect><rect x="485" y="75" width="1" height="241" stroke="none" stroke-width="0" fill="#cccccc"></rect><rect x="161" y="75" width="1" height="241" stroke="none" stroke-width="0" fill="#ebebeb"></rect><rect x="254" y="75" width="1" height="241" stroke="none" stroke-width="0" fill="#ebebeb"></rect><rect x="346" y="75" width="1" height="241" stroke="none" stroke-width="0" fill="#ebebeb"></rect><rect x="439" y="75" width="1" height="241" stroke="none" stroke-width="0" fill="#ebebeb"></rect><rect x="115" y="315" width="371" height="1" stroke="none" stroke-width="0" fill="#cccccc"></rect><rect x="115" y="235" width="371" height="1" stroke="none" stroke-width="0" fill="#cccccc"></rect><rect x="115" y="155" width="371" height="1" stroke="none" stroke-width="0" fill="#cccccc"></rect><rect x="115" y="75" width="371" height="1" stroke="none" stroke-width="0" fill="#cccccc"></rect><rect x="115" y="275" width="371" height="1" stroke="none" stroke-width="0" fill="#ebebeb"></rect><rect x="115" y="195" width="371" height="1" stroke="none" stroke-width="0" fill="#ebebeb"></rect><rect x="115" y="115" width="371" height="1" stroke="none" stroke-width="0" fill="#ebebeb"></rect></g><g><rect x="115" y="75" width="1" height="241" stroke="none" stroke-width="0" fill="#333333"></rect><rect x="115" y="315" width="371" height="1" stroke="none" stroke-width="0" fill="#333333"></rect></g><g><path d="M115.5,315.5L119.2,313.9L122.9,312.3L126.6,310.7L130.3,309.1L134,307.5L137.7,305.9L141.4,304.3L145.1,302.7L148.8,301.1L152.5,299.5L156.2,297.9L159.9,296.3L163.6,294.7L167.3,293.1L171,291.5L174.7,289.9L178.4,288.3L182.1,286.7L185.8,285.1L189.5,283.5L193.2,281.9L196.9,280.3L200.60000000000002,278.7L204.3,277.1L208,275.5L211.7,273.9L215.4,272.3L219.10000000000002,270.7L222.8,269.1L226.5,267.5L230.2,265.9L233.9,264.3L237.60000000000002,262.7L241.3,261.1L245,259.5L248.7,257.9L252.4,256.3L256.1,254.7L259.8,253.1L263.5,251.5L267.2,249.9L270.9,248.3L274.6,246.7L278.3,245.1L282,243.5L285.70000000000005,241.89999999999998L289.4,240.3L293.1,238.7L296.79999999999995,237.1L300.5,235.5L304.20000000000005,233.9L307.9,232.3L311.6,230.7L315.3,229.1L319,227.5L322.70000000000005,225.89999999999998L326.4,224.3L330.1,222.7L333.79999999999995,221.10000000000002L337.5,219.5L341.2,217.9L344.9,216.3L348.6,214.7L352.3,213.1L356,211.5L359.70000000000005,209.89999999999998L363.4,208.3L367.1,206.7L370.79999999999995,205.10000000000002L374.5,203.5L378.2,201.9L381.9,200.3L385.59999999999997,198.7L389.3,197.1L393,195.5L396.7,193.9L400.40000000000003,192.3L404.1,190.7L407.8,189.1L411.5,187.5L415.20000000000005,185.89999999999998L418.9,184.3L422.59999999999997,182.70000000000002L426.3,181.1L430,179.5L433.7,177.9L437.4,176.3L441.1,174.7L444.8,173.1L448.5,171.5L452.2,169.9L455.90000000000003,168.29999999999998L459.6,166.7L463.29999999999995,165.10000000000002L467,163.5L470.7,161.9L474.4,160.3L478.09999999999997,158.7L481.8,157.1L485.5,155.5" stroke="#3366cc" stroke-width="2" stroke-opacity="0.5" fill-opacity="1" fill="none"></path><path d="M115.5,288.833333333332L119.2,286.033333333332L122.9,283.233333333332L126.6,280.43333333333203L130.3,277.633333333332L134,274.83333333332L137.7,272.03333333332L141.4,269.23333333332L145.1,266.43333333332L148.8,263.63333333332L152.5,260.83333333332L156.2,258.03333333332L159.9,255.23333333332L163.6,252.43333333332L167.3,249.63333333332L171,246.83333333332L174.7,244.03333333332L178.4,241.23333333332L182.1,238.43333333331998L185.8,235.63333333332L189.5,232.83333333332L193.2,230.03333333332L196.9,227.23333333332L200.60000000000002,224.43333333332L204.3,221.63333333332L208,218.83333333332L211.7,216.03333333332L215.4,213.23333333332L219.10000000000002,210.43333333332L222.8,207.63333333332002L226.5,204.83333333332L230.2,202.03333333332L233.9,199.23333333332L237.60000000000002,196.43333333331998L241.3,193.63333333332L245,190.83333333331998L248.7,188.03333333332L252.4,185.23333333332L256.1,182.43333333331998L259.8,179.63333333332L263.5,176.83333333332L267.2,174.03333333332L270.9,171.23333333332L274.6,168.43333333332L278.3,165.63333333332L282,162.83333333332L285.70000000000005,160.03333333332L289.4,157.23333333332L293.1,154.43333333331998L296.79999999999995,151.63333333332002L300.5,148.83333333332L304.20000000000005,146.03333333332L307.9,143.23333333332002L311.6,140.43333333332L315.3,137.63333333332L319,134.83333333332L322.70000000000005,132.03333333332L326.4,129.23333333332L330.1,126.43333333332001L333.79999999999995,123.63333333332L337.5,120.83333333331998L341.2,118.03333333332L344.9,115.23333333331999L348.6,112.43333333331998L352.3,109.63333333332002L356,106.83333333332001L359.70000000000005,104.03333333332L363.4,101.23333333331999L367.1,98.43333333332001L370.79999999999995,95.63333333332L374.5,92.83333333331998L378.2,90.03333333332L381.9,87.23333333331999L385.59999999999997,84.43333333331998L389.3,81.63333333332002L393,78.83333333332001L396.7,76.03333333332L400.40000000000003,73.23333333332002L404.1,70.43333333332001L407.8,67.63333333332L411.5,64.83333333332001L415.20000000000005,62.03333333332L418.9,59.23333333331999L422.59999999999997,56.433333333320036L426.3,53.633333333320024L430,50.83333333332001L433.7,48.03333333332L437.4,45.23333333331999L441.1,42.43333333331998L444.8,39.633333333320024L448.5,36.83333333332001L452.2,34.03333333332L455.90000000000003,31.23333333331999L459.6,28.43333333331998L463.29999999999995,25.633333333320024L467,22.833333333319956L470.7,20.03333333332L474.4,17.23333333331999L478.09999999999997,14.433333333319979L481.8,11.633333333320024L485.5,8.833333333320013" stroke="#dc3912" stroke-width="2" stroke-opacity="0.5" fill-opacity="1" fill="none"></path><path d="M115.5,328.833333333332L119.2,327.633333333332L122.9,326.43333333333203L126.6,325.233333333332L130.3,324.033333333332L134,322.833333333332L137.7,321.633333333332L141.4,320.433333333332L145.1,319.2333333333332L148.8,318.0333333333332L152.5,316.8333333333332L156.2,315.6333333333333L159.9,314.4333333333332L163.6,313.2333333333332L167.3,312.0333333333332L171,310.833333333332L174.7,309.633333333332L178.4,308.433333333332L182.1,307.233333333332L185.8,306.033333333332L189.5,304.833333333332L193.2,303.633333333332L196.9,302.433333333332L200.60000000000002,301.233333333332L204.3,300.033333333332L208,298.833333333332L211.7,297.633333333332L215.4,296.43333333333203L219.10000000000002,295.233333333332L222.8,294.033333333332L226.5,292.833333333332L230.2,291.633333333332L233.9,290.43333333333203L237.60000000000002,289.233333333332L241.3,288.033333333332L245,286.833333333332L248.7,285.633333333332L252.4,284.433333333332L256.1,283.233333333332L259.8,282.033333333332L263.5,280.833333333332L267.2,279.633333333332L270.9,278.43333333333203L274.6,277.233333333332L278.3,276.033333333332L282,274.83333333332L285.70000000000005,273.63333333332L289.4,272.43333333332L293.1,271.23333333332L296.79999999999995,270.03333333332L300.5,268.83333333332L304.20000000000005,267.63333333332L307.9,266.43333333332L311.6,265.23333333332L315.3,264.03333333332L319,262.83333333332L322.70000000000005,261.63333333332L326.4,260.43333333332L330.1,259.23333333332L333.79999999999995,258.03333333332L337.5,256.83333333332L341.2,255.63333333332L344.9,254.43333333332L348.6,253.23333333332L352.3,252.03333333332L356,250.83333333332L359.70000000000005,249.63333333332L363.4,248.43333333331998L367.1,247.23333333332L370.79999999999995,246.03333333332L374.5,244.83333333332L378.2,243.63333333332L381.9,242.43333333332L385.59999999999997,241.23333333332L389.3,240.03333333332L393,238.83333333332L396.7,237.63333333332L400.40000000000003,236.43333333331998L404.1,235.23333333332L407.8,234.03333333332L411.5,232.83333333332L415.20000000000005,231.63333333332L418.9,230.43333333332L422.59999999999997,229.23333333332L426.3,228.03333333332L430,226.83333333332L433.7,225.63333333332L437.4,224.43333333332L441.1,223.23333333332L444.8,222.03333333332L448.5,220.83333333331998L452.2,219.63333333332L455.90000000000003,218.43333333332L459.6,217.23333333332L463.29999999999995,216.03333333332L467,214.83333333332L470.7,213.63333333332L474.4,212.43333333331998L478.09999999999997,211.23333333332L481.8,210.03333333332L485.5,208.83333333332" stroke="#ff9900" stroke-width="2" stroke-opacity="0.5" fill-opacity="1" fill="none"></path></g></g><g><circle cx="208" cy="275.5" r="4.5" stroke="none" stroke-width="0" fill="#3366cc"></circle><circle cx="300.5" cy="235.5" r="4.5" stroke="none" stroke-width="0" fill="#3366cc"></circle><circle cx="393" cy="195.5" r="4.5" stroke="none" stroke-width="0" fill="#3366cc"></circle><circle cx="208" cy="235.5" r="4.5" stroke="none" stroke-width="0" fill="#dc3912"></circle><circle cx="300.5" cy="115.5" r="4.5" stroke="none" stroke-width="0" fill="#dc3912"></circle><circle cx="393" cy="95.5" r="4.5" stroke="none" stroke-width="0" fill="#dc3912"></circle><circle cx="208" cy="295.5" r="4.5" stroke="none" stroke-width="0" fill="#ff9900"></circle><circle cx="300.5" cy="275.5" r="4.5" stroke="none" stroke-width="0" fill="#ff9900"></circle><circle cx="393" cy="235.5" r="4.5" stroke="none" stroke-width="0" fill="#ff9900"></circle></g><g><g><text text-anchor="middle" x="115.5" y="335.05" font-family="Arial" font-size="13" stroke="none" stroke-width="0" fill="#444444">0</text></g><g><text text-anchor="middle" x="208" y="335.05" font-family="Arial" font-size="13" stroke="none" stroke-width="0" fill="#444444">1</text></g><g><text text-anchor="middle" x="300.5" y="335.05" font-family="Arial" font-size="13" stroke="none" stroke-width="0" fill="#444444">2</text></g><g><text text-anchor="middle" x="393" y="335.05" font-family="Arial" font-size="13" stroke="none" stroke-width="0" fill="#444444">3</text></g><g><text text-anchor="middle" x="485.5" y="335.05" font-family="Arial" font-size="13" stroke="none" stroke-width="0" fill="#444444">4</text></g><g><text text-anchor="end" x="102" y="320.05" font-family="Arial" font-size="13" stroke="none" stroke-width="0" fill="#444444">0</text></g><g><text text-anchor="end" x="102" y="240.05" font-family="Arial" font-size="13" stroke="none" stroke-width="0" fill="#444444">2</text></g><g><text text-anchor="end" x="102" y="160.05" font-family="Arial" font-size="13" stroke="none" stroke-width="0" fill="#444444">4</text></g><g><text text-anchor="end" x="102" y="80.05" font-family="Arial" font-size="13" stroke="none" stroke-width="0" fill="#444444">6</text></g></g></g><g><g><text text-anchor="middle" x="300.5" y="368.05" font-family="Arial" font-size="13" font-style="italic" stroke="none" stroke-width="0" fill="#222222">Trục x</text><rect x="115" y="357" width="371" height="13" stroke="none" stroke-width="0" fill-opacity="0" fill="#ffffff"></rect></g><g><text text-anchor="middle" x="52.05" y="195.5" font-family="Arial" font-size="13" font-style="italic" transform="rotate(-90 52.05 195.5)" stroke="none" stroke-width="0" fill="#222222">Trục y</text><path d="M40.99999999999999,316L41.00000000000001,75L54.00000000000001,75L53.99999999999999,316Z" stroke="none" stroke-width="0" fill-opacity="0" fill="#ffffff"></path></g></g><g></g></svg>